<?xml version="1.0" encoding="iso-8859-1"?>
<!-- Generator: Adobe Illustrator 23.0.1, SVG Export Plug-In . SVG Version: 6.00 Build 0)  -->
<svg version="1.1" id="Layer_1" xmlns="http://www.w3.org/2000/svg" xmlns:xlink="http://www.w3.org/1999/xlink" x="0px" y="0px"
	 viewBox="0 0 1920 740" style="enable-background:new 0 0 1920 740;" xml:space="preserve">
<rect y="0" style="fill:#2A3892;" width="1920" height="740"/>
<g id="_x33_rd_iteration_1_">
	<g>
		<rect x="1293.556" y="581" style="fill:#54FF82;" width="44.444" height="30"/>
	</g>
	<g>
		<rect x="1204.667" y="581" style="fill:#54FF82;" width="44.444" height="30"/>
	</g>
	<g>
		<rect x="1026.889" y="581" style="fill:#54FF82;" width="44.444" height="30"/>
	</g>
	<g>
		<rect x="938" y="581" style="fill:#54FF82;" width="44.444" height="30"/>
	</g>
	<g>
		<rect x="493.556" y="581" style="fill:#54FF82;" width="44.444" height="30"/>
	</g>
	<g>
		<rect x="404.667" y="581" style="fill:#54FF82;" width="44.444" height="30"/>
	</g>
	<g>
		<rect x="226.889" y="581" style="fill:#54FF82;" width="44.444" height="30"/>
	</g>
	<g>
		<rect x="138" y="581" style="fill:#54FF82;" width="44.444" height="30"/>
	</g>
	<g>
		<rect x="1448" y="565" style="fill:none;" width="398.298" height="91.915"/>
		<path style="fill:#54FF82;" d="M1471.835,589.955c1.843,2.31,2.765,5.215,2.765,8.715v3.29c0,4.76-1.073,8.365-3.22,10.815
			c-2.146,2.449-5.32,3.675-9.52,3.675c-3.92,0-7.013-1.201-9.275-3.605c-2.264-2.402-3.442-5.868-3.535-10.395h6.72
			c0.141,2.66,0.711,4.562,1.716,5.705c1.003,1.144,2.438,1.715,4.305,1.715c2.053,0,3.57-0.642,4.55-1.925
			c0.98-1.283,1.47-3.325,1.47-6.125v-3.011c0-2.612-0.571-4.479-1.715-5.6s-2.835-1.68-5.075-1.68h-4.479v-4.761l8.61-13.859
			h-14.42v-6.23h22.68v4.55l-9.38,14.98C1467.39,586.396,1469.991,587.645,1471.835,589.955z"/>
		<path style="fill:#54FF82;" d="M1500.43,578.51v6.72c-1.307-0.56-2.824-0.84-4.55-0.84c-2.334,0-4.177,0.794-5.53,2.38
			c-1.354,1.588-2.03,3.851-2.03,6.79v22.12h-6.79v-36.89h4.83l0.771,4.479c2.053-3.546,5.203-5.319,9.45-5.319
			C1498.213,577.95,1499.496,578.137,1500.43,578.51z"/>
		<path style="fill:#54FF82;" d="M1529.619,565v50.68h-4.899l-0.49-3.43c-0.935,1.26-2.147,2.287-3.641,3.08
			c-1.494,0.793-3.057,1.189-4.689,1.189c-3.5,0-6.324-1.282-8.47-3.85c-2.147-2.566-3.221-6.066-3.221-10.5v-10.15
			c0-4.433,1.05-7.897,3.15-10.395c2.1-2.496,4.946-3.745,8.54-3.745c1.353,0,2.66,0.27,3.92,0.805
			c1.26,0.537,2.333,1.272,3.22,2.205V565H1529.619z M1523.039,592.02c0-2.38-0.537-4.258-1.609-5.635
			c-1.074-1.376-2.545-2.064-4.41-2.064c-2.007,0-3.5,0.63-4.48,1.89c-0.979,1.26-1.47,3.197-1.47,5.81v10.15
			c0,2.66,0.513,4.645,1.54,5.95c1.025,1.307,2.496,1.96,4.41,1.96c1.819,0,3.277-0.665,4.375-1.995
			c1.096-1.33,1.645-3.278,1.645-5.845V592.02z"/>
		<path style="fill:#54FF82;" d="M1553.068,571.405c-0.794-0.816-1.189-1.831-1.189-3.045c0-1.261,0.396-2.299,1.189-3.115
			c0.793-0.816,1.82-1.226,3.08-1.226s2.298,0.409,3.115,1.226c0.815,0.816,1.225,1.854,1.225,3.115
			c0,1.214-0.409,2.229-1.225,3.045c-0.817,0.816-1.855,1.225-3.115,1.225S1553.861,572.222,1553.068,571.405z M1552.788,578.79
			h6.79v36.89h-6.79V578.79z"/>
		<path style="fill:#54FF82;" d="M1584.009,609.729v6.37h-2.59c-3.641,0-6.499-1.096-8.575-3.29
			c-2.077-2.192-3.115-5.202-3.115-9.029v-18.83h-5.18v-6.16h5.18v-8.75h6.72v8.75h6.86v6.16h-6.86v18.899
			c0,2.008,0.432,3.489,1.296,4.445c0.862,0.957,2.204,1.435,4.024,1.435H1584.009z"/>
		<path style="fill:#54FF82;" d="M1614.809,604.13c-0.375,3.92-1.692,6.954-3.955,9.1c-2.265,2.147-5.355,3.221-9.275,3.221
			c-3.874,0-6.93-1.213-9.17-3.641c-2.24-2.426-3.36-5.833-3.36-10.22V591.6c0-4.34,1.131-7.711,3.396-10.114
			c2.263-2.403,5.354-3.605,9.274-3.605c4.014,0,7.176,1.202,9.485,3.605s3.465,5.774,3.465,10.114v8.19h-18.83v2.8
			c0,2.475,0.501,4.317,1.505,5.53c1.003,1.214,2.461,1.819,4.375,1.819c1.96,0,3.418-0.454,4.375-1.364
			c0.956-0.91,1.575-2.392,1.855-4.445H1614.809z M1597.378,586.035c-1.026,1.189-1.54,3.021-1.54,5.495v3.149h12.11v-3.149
			c0-4.854-2.054-7.28-6.16-7.28C1599.874,584.25,1598.404,584.845,1597.378,586.035z"/>
		<path style="fill:#54FF82;" d="M1640.567,578.51v6.72c-1.307-0.56-2.824-0.84-4.55-0.84c-2.334,0-4.177,0.794-5.53,2.38
			c-1.354,1.588-2.03,3.851-2.03,6.79v22.12h-6.79v-36.89h4.83l0.771,4.479c2.053-3.546,5.203-5.319,9.45-5.319
			C1638.351,577.95,1639.634,578.137,1640.567,578.51z"/>
		<path style="fill:#54FF82;" d="M1665.802,581.31c2.03,2.287,3.045,5.577,3.045,9.87v24.5h-5.529l-0.49-3.5
			c-0.794,1.354-1.879,2.428-3.255,3.221c-1.377,0.793-3.022,1.189-4.936,1.189c-3.407,0-6.148-1.038-8.225-3.115
			c-2.077-2.075-3.115-4.841-3.115-8.295c0-3.686,1.19-6.498,3.57-8.435s5.646-2.905,9.8-2.905h5.39v-2.66
			c0-4.525-1.773-6.79-5.319-6.79c-1.54,0-2.813,0.42-3.815,1.261c-1.004,0.84-1.599,2.054-1.785,3.64h-6.79
			c0.187-3.546,1.4-6.335,3.641-8.365c2.239-2.03,5.202-3.045,8.89-3.045C1660.797,577.88,1663.771,579.024,1665.802,581.31z
			 M1662.057,599.51h-5.39c-2.1,0-3.71,0.49-4.83,1.47c-1.12,0.98-1.68,2.381-1.68,4.2c0,1.681,0.513,2.999,1.54,3.955
			c1.025,0.957,2.473,1.436,4.34,1.436c1.866,0,3.336-0.561,4.41-1.681c1.072-1.12,1.609-2.636,1.609-4.55V599.51z"/>
		<path style="fill:#54FF82;" d="M1693.276,609.729v6.37h-2.59c-3.641,0-6.499-1.096-8.575-3.29
			c-2.077-2.192-3.115-5.202-3.115-9.029v-18.83h-5.18v-6.16h5.18v-8.75h6.72v8.75h6.86v6.16h-6.86v18.899
			c0,2.008,0.432,3.489,1.296,4.445c0.862,0.957,2.204,1.435,4.024,1.435H1693.276z"/>
		<path style="fill:#54FF82;" d="M1699.365,571.405c-0.794-0.816-1.189-1.831-1.189-3.045c0-1.261,0.396-2.299,1.189-3.115
			c0.793-0.816,1.82-1.226,3.08-1.226s2.298,0.409,3.115,1.226c0.815,0.816,1.225,1.854,1.225,3.115
			c0,1.214-0.409,2.229-1.225,3.045c-0.817,0.816-1.855,1.225-3.115,1.225S1700.158,572.222,1699.365,571.405z M1699.085,578.79
			h6.79v36.89h-6.79V578.79z"/>
		<path style="fill:#54FF82;" d="M1716.62,612.88c-2.31-2.426-3.465-5.88-3.465-10.36v-10.64c0-4.479,1.155-7.933,3.465-10.36
			c2.311-2.426,5.472-3.64,9.485-3.64c4.061,0,7.245,1.214,9.555,3.64c2.311,2.428,3.466,5.881,3.466,10.36v10.64
			c0,4.48-1.155,7.935-3.466,10.36c-2.31,2.427-5.494,3.64-9.555,3.64C1722.092,616.52,1718.931,615.307,1716.62,612.88z
			 M1732.266,602.52v-10.64c0-4.946-2.054-7.42-6.16-7.42c-4.06,0-6.09,2.474-6.09,7.42v10.64c0,4.947,2.03,7.42,6.09,7.42
			C1730.212,609.939,1732.266,607.467,1732.266,602.52z"/>
		<path style="fill:#54FF82;" d="M1768.735,581.52c1.82,2.428,2.73,6.091,2.73,10.99v23.17h-6.79V592.86
			c0-2.986-0.42-5.156-1.26-6.511c-0.84-1.353-2.147-2.029-3.92-2.029c-1.96,0-3.5,0.747-4.62,2.239
			c-1.12,1.494-1.681,3.595-1.681,6.301v22.819h-6.79v-36.89h4.83l0.7,4.13c0.98-1.633,2.24-2.881,3.78-3.745
			c1.54-0.863,3.336-1.295,5.39-1.295C1764.372,577.88,1766.916,579.094,1768.735,581.52z"/>
	</g>
</g>
<g id="_x32_nd_iteration_1_">
	<g>
		<rect x="938" y="431" style="fill:#54FF82;" width="133.333" height="30"/>
	</g>
	<g>
		<rect x="1204.667" y="431" style="fill:#54FF82;" width="133.333" height="30"/>
	</g>
	<g>
		<rect x="404.667" y="431" style="fill:#54FF82;" width="133.333" height="30"/>
	</g>
	<g>
		<rect x="138" y="431" style="fill:#54FF82;" width="133.333" height="30"/>
	</g>
	<g>
		<rect x="1448" y="415" style="fill:none;" width="398.298" height="91.915"/>
		<path style="fill:#54FF82;" d="M1449.96,460.99c0-2.753,0.501-5.331,1.505-7.735c1.003-2.403,2.216-4.503,3.641-6.3
			c1.423-1.796,3.255-3.908,5.494-6.335c2.566-2.753,4.469-5.04,5.705-6.86c1.236-1.82,1.855-3.733,1.855-5.74
			c0-1.633-0.49-2.998-1.47-4.095c-0.98-1.096-2.357-1.645-4.131-1.645c-1.727,0-3.104,0.584-4.13,1.75
			c-1.026,1.167-1.563,2.847-1.609,5.04h-6.511c0.187-4.153,1.365-7.385,3.535-9.695s5.051-3.465,8.646-3.465
			c2.612,0,4.853,0.549,6.72,1.645c1.866,1.097,3.278,2.555,4.235,4.375c0.956,1.82,1.435,3.78,1.435,5.88
			c0,2.147-0.444,4.2-1.33,6.16c-0.887,1.96-1.96,3.745-3.22,5.355s-2.94,3.559-5.04,5.845c-2.8,3.034-4.889,5.589-6.265,7.665
			c-1.377,2.077-2.065,4.259-2.065,6.545h18.271v6.3h-25.271V460.99z"/>
		<path style="fill:#54FF82;" d="M1503.859,431.52c1.82,2.427,2.73,6.09,2.73,10.99v23.17h-6.79v-22.82
			c0-2.986-0.42-5.156-1.26-6.51c-0.84-1.353-2.147-2.03-3.92-2.03c-1.96,0-3.5,0.747-4.62,2.24c-1.12,1.494-1.681,3.594-1.681,6.3
			v22.82h-6.79v-36.89h4.83l0.7,4.13c0.98-1.633,2.24-2.881,3.78-3.745c1.54-0.863,3.336-1.295,5.39-1.295
			C1499.496,427.88,1502.04,429.094,1503.859,431.52z"/>
		<path style="fill:#54FF82;" d="M1538.929,415v50.68h-4.899l-0.49-3.43c-0.935,1.26-2.147,2.287-3.641,3.08
			c-1.494,0.793-3.057,1.19-4.689,1.19c-3.5,0-6.324-1.283-8.47-3.85c-2.147-2.566-3.221-6.066-3.221-10.5v-10.15
			c0-4.433,1.05-7.898,3.15-10.395c2.1-2.496,4.946-3.745,8.54-3.745c1.353,0,2.66,0.269,3.92,0.805
			c1.26,0.537,2.333,1.272,3.22,2.205V415H1538.929z M1532.349,442.02c0-2.38-0.537-4.258-1.609-5.635
			c-1.074-1.376-2.545-2.065-4.41-2.065c-2.007,0-3.5,0.63-4.48,1.89c-0.979,1.26-1.47,3.197-1.47,5.81v10.15
			c0,2.66,0.513,4.644,1.54,5.95c1.025,1.307,2.496,1.96,4.41,1.96c1.819,0,3.277-0.665,4.375-1.995
			c1.096-1.33,1.645-3.278,1.645-5.845V442.02z"/>
		<path style="fill:#54FF82;" d="M1562.378,421.405c-0.794-0.816-1.189-1.831-1.189-3.045c0-1.26,0.396-2.298,1.189-3.115
			c0.793-0.816,1.82-1.225,3.08-1.225s2.298,0.409,3.115,1.225c0.815,0.817,1.225,1.855,1.225,3.115
			c0,1.214-0.409,2.229-1.225,3.045c-0.817,0.817-1.855,1.225-3.115,1.225S1563.171,422.222,1562.378,421.405z M1562.098,428.79
			h6.79v36.89h-6.79V428.79z"/>
		<path style="fill:#54FF82;" d="M1593.318,459.729v6.37h-2.59c-3.641,0-6.499-1.096-8.575-3.29
			c-2.077-2.193-3.115-5.203-3.115-9.03v-18.83h-5.18v-6.16h5.18v-8.75h6.72v8.75h6.86v6.16h-6.86v18.9
			c0,2.007,0.432,3.489,1.296,4.445c0.862,0.957,2.204,1.435,4.024,1.435H1593.318z"/>
		<path style="fill:#54FF82;" d="M1624.117,454.13c-0.375,3.92-1.692,6.954-3.955,9.1c-2.265,2.147-5.355,3.22-9.275,3.22
			c-3.874,0-6.93-1.213-9.17-3.64c-2.24-2.426-3.36-5.833-3.36-10.22V441.6c0-4.34,1.131-7.711,3.396-10.115
			c2.263-2.403,5.354-3.605,9.274-3.605c4.014,0,7.176,1.202,9.485,3.605c2.31,2.404,3.465,5.775,3.465,10.115v8.19h-18.83v2.8
			c0,2.474,0.501,4.317,1.505,5.53c1.003,1.214,2.461,1.82,4.375,1.82c1.96,0,3.418-0.455,4.375-1.365
			c0.956-0.91,1.575-2.391,1.855-4.445H1624.117z M1606.687,436.035c-1.026,1.19-1.54,3.022-1.54,5.495v3.15h12.11v-3.15
			c0-4.853-2.054-7.28-6.16-7.28C1609.183,434.25,1607.713,434.845,1606.687,436.035z"/>
		<path style="fill:#54FF82;" d="M1649.876,428.51v6.72c-1.307-0.56-2.824-0.84-4.55-0.84c-2.334,0-4.177,0.794-5.53,2.38
			c-1.354,1.587-2.03,3.85-2.03,6.79v22.12h-6.79v-36.89h4.83l0.771,4.48c2.053-3.546,5.203-5.32,9.45-5.32
			C1647.659,427.95,1648.942,428.137,1649.876,428.51z"/>
		<path style="fill:#54FF82;" d="M1675.111,431.31c2.03,2.287,3.045,5.577,3.045,9.87v24.5h-5.529l-0.49-3.5
			c-0.794,1.354-1.879,2.427-3.255,3.22c-1.377,0.793-3.022,1.19-4.936,1.19c-3.407,0-6.148-1.038-8.225-3.115
			c-2.077-2.076-3.115-4.841-3.115-8.295c0-3.686,1.19-6.498,3.57-8.435c2.38-1.936,5.646-2.905,9.8-2.905h5.39v-2.66
			c0-4.526-1.773-6.79-5.319-6.79c-1.54,0-2.813,0.42-3.815,1.26c-1.004,0.84-1.599,2.054-1.785,3.64h-6.79
			c0.187-3.546,1.4-6.335,3.641-8.365c2.239-2.03,5.202-3.045,8.89-3.045C1670.106,427.88,1673.081,429.024,1675.111,431.31z
			 M1671.366,449.51h-5.39c-2.1,0-3.71,0.49-4.83,1.47s-1.68,2.38-1.68,4.2c0,1.68,0.513,2.999,1.54,3.955
			c1.025,0.957,2.473,1.435,4.34,1.435c1.866,0,3.336-0.56,4.41-1.68c1.072-1.12,1.609-2.636,1.609-4.55V449.51z"/>
		<path style="fill:#54FF82;" d="M1702.586,459.729v6.37h-2.59c-3.641,0-6.499-1.096-8.575-3.29
			c-2.077-2.193-3.115-5.203-3.115-9.03v-18.83h-5.18v-6.16h5.18v-8.75h6.72v8.75h6.86v6.16h-6.86v18.9
			c0,2.007,0.432,3.489,1.296,4.445c0.862,0.957,2.204,1.435,4.024,1.435H1702.586z"/>
		<path style="fill:#54FF82;" d="M1708.675,421.405c-0.794-0.816-1.189-1.831-1.189-3.045c0-1.26,0.396-2.298,1.189-3.115
			c0.793-0.816,1.82-1.225,3.08-1.225s2.298,0.409,3.115,1.225c0.815,0.817,1.225,1.855,1.225,3.115
			c0,1.214-0.409,2.229-1.225,3.045c-0.817,0.817-1.855,1.225-3.115,1.225S1709.468,422.222,1708.675,421.405z M1708.395,428.79
			h6.79v36.89h-6.79V428.79z"/>
		<path style="fill:#54FF82;" d="M1725.93,462.88c-2.31-2.426-3.465-5.88-3.465-10.36v-10.64c0-4.48,1.155-7.933,3.465-10.36
			c2.311-2.426,5.472-3.64,9.485-3.64c4.061,0,7.245,1.214,9.555,3.64c2.311,2.427,3.466,5.88,3.466,10.36v10.64
			c0,4.48-1.155,7.934-3.466,10.36c-2.31,2.427-5.494,3.64-9.555,3.64C1731.401,466.52,1728.24,465.307,1725.93,462.88z
			 M1741.575,452.52v-10.64c0-4.946-2.054-7.42-6.16-7.42c-4.06,0-6.09,2.474-6.09,7.42v10.64c0,4.947,2.03,7.42,6.09,7.42
			C1739.521,459.939,1741.575,457.467,1741.575,452.52z"/>
		<path style="fill:#54FF82;" d="M1778.045,431.52c1.82,2.427,2.73,6.09,2.73,10.99v23.17h-6.79v-22.82
			c0-2.986-0.42-5.156-1.26-6.51c-0.84-1.353-2.147-2.03-3.92-2.03c-1.96,0-3.5,0.747-4.62,2.24c-1.12,1.494-1.681,3.594-1.681,6.3
			v22.82h-6.79v-36.89h4.83l0.7,4.13c0.98-1.633,2.24-2.881,3.78-3.745c1.54-0.863,3.336-1.295,5.39-1.295
			C1773.682,427.88,1776.226,429.094,1778.045,431.52z"/>
	</g>
</g>
<g id="_x31_st_iteration_1_">
	<g>
		<rect x="938" y="281" style="fill:#54FF82;" width="400" height="30"/>
	</g>
	<g>
		<rect x="138" y="281" style="fill:#54FF82;" width="400" height="30"/>
	</g>
	<g>
		<rect x="1448" y="265" style="fill:none;" width="398.298" height="91.915"/>
		<path style="fill:#54FF82;" d="M1463.89,266.68v49h-6.79v-39.83l-7.35,5.18v-7.7l9.1-6.65H1463.89z"/>
		<path style="fill:#54FF82;" d="M1476.735,314.979c-1.984-1.073-3.5-2.543-4.551-4.41c-1.05-1.866-1.599-3.943-1.645-6.23h6.72
			c0.046,1.774,0.606,3.209,1.681,4.305c1.072,1.097,2.636,1.645,4.689,1.645c1.773,0,3.15-0.408,4.13-1.225
			c0.98-0.816,1.471-1.948,1.471-3.395c0-1.446-0.585-2.566-1.75-3.36c-1.167-0.793-3.011-1.703-5.53-2.73
			c-2.287-0.886-4.154-1.738-5.601-2.555c-1.446-0.816-2.684-1.948-3.71-3.395c-1.026-1.446-1.54-3.266-1.54-5.46
			c0-3.126,1.085-5.623,3.256-7.49c2.17-1.866,5.051-2.8,8.645-2.8c3.826,0,6.79,1.074,8.89,3.22c2.101,2.147,3.221,4.994,3.36,8.54
			h-6.65c-0.047-1.773-0.536-3.15-1.47-4.13s-2.31-1.47-4.13-1.47c-1.587,0-2.847,0.374-3.78,1.12
			c-0.934,0.747-1.399,1.774-1.399,3.08c0,1.307,0.56,2.345,1.68,3.115s2.87,1.599,5.25,2.485c2.38,0.887,4.316,1.739,5.81,2.555
			c1.493,0.817,2.776,1.984,3.851,3.5c1.073,1.517,1.61,3.465,1.61,5.845c0,3.267-1.098,5.892-3.29,7.875
			c-2.194,1.984-5.181,2.975-8.96,2.975C1481.063,316.59,1478.718,316.053,1476.735,314.979z"/>
		<path style="fill:#54FF82;" d="M1518.21,309.729v6.37h-2.59c-3.641,0-6.499-1.096-8.575-3.29c-2.077-2.193-3.115-5.203-3.115-9.03
			v-18.83h-5.18v-6.16h5.18v-8.75h6.72v8.75h6.86v6.16h-6.86v18.9c0,2.007,0.432,3.489,1.296,4.445
			c0.862,0.957,2.204,1.435,4.024,1.435H1518.21z"/>
		<path style="fill:#54FF82;" d="M1539.349,271.405c-0.794-0.816-1.189-1.831-1.189-3.045c0-1.26,0.396-2.298,1.189-3.115
			c0.793-0.816,1.82-1.225,3.08-1.225s2.298,0.409,3.115,1.225c0.815,0.817,1.225,1.855,1.225,3.115
			c0,1.214-0.409,2.229-1.225,3.045c-0.817,0.817-1.855,1.225-3.115,1.225S1540.142,272.222,1539.349,271.405z M1539.068,278.79
			h6.79v36.89h-6.79V278.79z"/>
		<path style="fill:#54FF82;" d="M1570.289,309.729v6.37h-2.59c-3.641,0-6.499-1.096-8.575-3.29
			c-2.077-2.193-3.115-5.203-3.115-9.03v-18.83h-5.18v-6.16h5.18v-8.75h6.72v8.75h6.86v6.16h-6.86v18.9
			c0,2.007,0.432,3.489,1.296,4.445c0.862,0.957,2.204,1.435,4.024,1.435H1570.289z"/>
		<path style="fill:#54FF82;" d="M1601.088,304.13c-0.375,3.92-1.692,6.954-3.955,9.1c-2.265,2.147-5.355,3.22-9.275,3.22
			c-3.874,0-6.93-1.213-9.17-3.64c-2.24-2.426-3.36-5.833-3.36-10.22V291.6c0-4.34,1.131-7.711,3.396-10.115
			c2.263-2.403,5.354-3.605,9.274-3.605c4.014,0,7.176,1.202,9.485,3.605c2.31,2.404,3.465,5.775,3.465,10.115v8.19h-18.83v2.8
			c0,2.474,0.501,4.317,1.505,5.53c1.003,1.214,2.461,1.82,4.375,1.82c1.96,0,3.418-0.455,4.375-1.365
			c0.956-0.91,1.575-2.391,1.855-4.445H1601.088z M1583.657,286.035c-1.026,1.19-1.54,3.022-1.54,5.495v3.15h12.11v-3.15
			c0-4.853-2.054-7.28-6.16-7.28C1586.153,284.25,1584.684,284.845,1583.657,286.035z"/>
		<path style="fill:#54FF82;" d="M1626.847,278.51v6.72c-1.307-0.56-2.824-0.84-4.55-0.84c-2.334,0-4.177,0.794-5.53,2.38
			c-1.354,1.587-2.03,3.85-2.03,6.79v22.12h-6.79v-36.89h4.83l0.771,4.48c2.053-3.546,5.203-5.32,9.45-5.32
			C1624.63,277.95,1625.913,278.137,1626.847,278.51z"/>
		<path style="fill:#54FF82;" d="M1652.081,281.31c2.03,2.287,3.045,5.577,3.045,9.87v24.5h-5.529l-0.49-3.5
			c-0.794,1.354-1.879,2.427-3.255,3.22c-1.377,0.793-3.022,1.19-4.936,1.19c-3.407,0-6.148-1.038-8.225-3.115
			c-2.077-2.076-3.115-4.841-3.115-8.295c0-3.686,1.19-6.498,3.57-8.435c2.38-1.936,5.646-2.905,9.8-2.905h5.39v-2.66
			c0-4.526-1.773-6.79-5.319-6.79c-1.54,0-2.813,0.42-3.815,1.26c-1.004,0.84-1.599,2.054-1.785,3.64h-6.79
			c0.187-3.546,1.4-6.335,3.641-8.365c2.239-2.03,5.202-3.045,8.89-3.045C1647.076,277.88,1650.051,279.024,1652.081,281.31z
			 M1648.336,299.51h-5.39c-2.1,0-3.71,0.49-4.83,1.47s-1.68,2.38-1.68,4.2c0,1.68,0.513,2.999,1.54,3.955
			c1.025,0.957,2.473,1.435,4.34,1.435c1.866,0,3.336-0.56,4.41-1.68c1.072-1.12,1.609-2.636,1.609-4.55V299.51z"/>
		<path style="fill:#54FF82;" d="M1679.556,309.729v6.37h-2.59c-3.641,0-6.499-1.096-8.575-3.29
			c-2.077-2.193-3.115-5.203-3.115-9.03v-18.83h-5.18v-6.16h5.18v-8.75h6.72v8.75h6.86v6.16h-6.86v18.9
			c0,2.007,0.432,3.489,1.296,4.445c0.862,0.957,2.204,1.435,4.024,1.435H1679.556z"/>
		<path style="fill:#54FF82;" d="M1685.645,271.405c-0.794-0.816-1.189-1.831-1.189-3.045c0-1.26,0.396-2.298,1.189-3.115
			c0.793-0.816,1.82-1.225,3.08-1.225s2.298,0.409,3.115,1.225c0.815,0.817,1.225,1.855,1.225,3.115
			c0,1.214-0.409,2.229-1.225,3.045c-0.817,0.817-1.855,1.225-3.115,1.225S1686.438,272.222,1685.645,271.405z M1685.364,278.79
			h6.79v36.89h-6.79V278.79z"/>
		<path style="fill:#54FF82;" d="M1702.899,312.88c-2.31-2.426-3.465-5.88-3.465-10.36v-10.64c0-4.48,1.155-7.933,3.465-10.36
			c2.311-2.426,5.472-3.64,9.485-3.64c4.061,0,7.245,1.214,9.555,3.64c2.311,2.427,3.466,5.88,3.466,10.36v10.64
			c0,4.48-1.155,7.934-3.466,10.36c-2.31,2.427-5.494,3.64-9.555,3.64C1708.371,316.52,1705.21,315.307,1702.899,312.88z
			 M1718.545,302.52v-10.64c0-4.946-2.054-7.42-6.16-7.42c-4.06,0-6.09,2.474-6.09,7.42v10.64c0,4.947,2.03,7.42,6.09,7.42
			C1716.491,309.939,1718.545,307.467,1718.545,302.52z"/>
		<path style="fill:#54FF82;" d="M1755.015,281.52c1.82,2.427,2.73,6.09,2.73,10.99v23.17h-6.79v-22.82
			c0-2.986-0.42-5.156-1.26-6.51c-0.84-1.353-2.147-2.03-3.92-2.03c-1.96,0-3.5,0.747-4.62,2.24c-1.12,1.494-1.681,3.594-1.681,6.3
			v22.82h-6.79v-36.89h4.83l0.7,4.13c0.98-1.633,2.24-2.881,3.78-3.745c1.54-0.863,3.336-1.295,5.39-1.295
			C1750.651,277.88,1753.195,279.094,1755.015,281.52z"/>
	</g>
</g>
<g id="initiator">
	<g>
		<rect x="138" y="131" style="fill:#54FF82;" width="1200" height="30"/>
	</g>
	<g>
		<rect x="1448" y="115" style="fill:none;" width="398.298" height="91.915"/>
		<path style="fill:#54FF82;" d="M1452.34,121.405c-0.794-0.816-1.189-1.831-1.189-3.045c0-1.26,0.396-2.298,1.189-3.115
			c0.793-0.816,1.82-1.225,3.08-1.225s2.298,0.409,3.115,1.225c0.815,0.817,1.225,1.855,1.225,3.115
			c0,1.214-0.409,2.229-1.225,3.045c-0.817,0.817-1.855,1.225-3.115,1.225S1453.133,122.222,1452.34,121.405z M1452.06,128.79h6.79
			v36.89h-6.79V128.79z"/>
		<path style="fill:#54FF82;" d="M1489.3,131.52c1.82,2.427,2.73,6.09,2.73,10.99v23.17h-6.79v-22.82c0-2.986-0.42-5.156-1.26-6.51
			c-0.84-1.353-2.147-2.03-3.92-2.03c-1.96,0-3.5,0.747-4.62,2.24c-1.12,1.494-1.681,3.594-1.681,6.3v22.82h-6.79v-36.89h4.83
			l0.7,4.13c0.98-1.633,2.24-2.881,3.78-3.745c1.54-0.863,3.336-1.295,5.39-1.295C1484.937,127.88,1487.48,129.094,1489.3,131.52z"
			/>
		<path style="fill:#54FF82;" d="M1500.08,121.405c-0.794-0.816-1.189-1.831-1.189-3.045c0-1.26,0.396-2.298,1.189-3.115
			c0.793-0.816,1.82-1.225,3.08-1.225s2.298,0.409,3.115,1.225c0.815,0.817,1.225,1.855,1.225,3.115
			c0,1.214-0.409,2.229-1.225,3.045c-0.817,0.817-1.855,1.225-3.115,1.225S1500.873,122.222,1500.08,121.405z M1499.8,128.79h6.79
			v36.89h-6.79V128.79z"/>
		<path style="fill:#54FF82;" d="M1531.021,159.729v6.37h-2.59c-3.641,0-6.499-1.096-8.575-3.29
			c-2.077-2.193-3.115-5.203-3.115-9.03v-18.83h-5.18v-6.16h5.18v-8.75h6.72v8.75h6.86v6.16h-6.86v18.9
			c0,2.007,0.432,3.489,1.296,4.445c0.862,0.957,2.204,1.435,4.024,1.435H1531.021z"/>
		<path style="fill:#54FF82;" d="M1537.109,121.405c-0.794-0.816-1.189-1.831-1.189-3.045c0-1.26,0.396-2.298,1.189-3.115
			c0.793-0.816,1.82-1.225,3.08-1.225s2.298,0.409,3.115,1.225c0.815,0.817,1.225,1.855,1.225,3.115
			c0,1.214-0.409,2.229-1.225,3.045c-0.817,0.817-1.855,1.225-3.115,1.225S1537.902,122.222,1537.109,121.405z M1536.829,128.79
			h6.79v36.89h-6.79V128.79z"/>
		<path style="fill:#54FF82;" d="M1572.354,131.31c2.03,2.287,3.045,5.577,3.045,9.87v24.5h-5.529l-0.49-3.5
			c-0.794,1.354-1.879,2.427-3.255,3.22c-1.377,0.793-3.022,1.19-4.936,1.19c-3.407,0-6.148-1.038-8.225-3.115
			c-2.077-2.076-3.115-4.841-3.115-8.295c0-3.686,1.19-6.498,3.57-8.435c2.38-1.936,5.646-2.905,9.8-2.905h5.39v-2.66
			c0-4.526-1.773-6.79-5.319-6.79c-1.54,0-2.813,0.42-3.815,1.26c-1.004,0.84-1.599,2.054-1.785,3.64h-6.79
			c0.187-3.546,1.4-6.335,3.641-8.365c2.239-2.03,5.202-3.045,8.89-3.045C1567.35,127.88,1570.324,129.024,1572.354,131.31z
			 M1568.609,149.51h-5.39c-2.1,0-3.71,0.49-4.83,1.47s-1.68,2.38-1.68,4.2c0,1.68,0.513,2.999,1.54,3.955
			c1.025,0.957,2.473,1.435,4.34,1.435c1.866,0,3.336-0.56,4.41-1.68c1.072-1.12,1.609-2.636,1.609-4.55V149.51z"/>
		<path style="fill:#54FF82;" d="M1599.829,159.729v6.37h-2.59c-3.641,0-6.499-1.096-8.575-3.29
			c-2.077-2.193-3.115-5.203-3.115-9.03v-18.83h-5.18v-6.16h5.18v-8.75h6.72v8.75h6.86v6.16h-6.86v18.9
			c0,2.007,0.432,3.489,1.296,4.445c0.862,0.957,2.204,1.435,4.024,1.435H1599.829z"/>
		<path style="fill:#54FF82;" d="M1608.332,162.88c-2.31-2.426-3.465-5.88-3.465-10.36v-10.64c0-4.48,1.155-7.933,3.465-10.36
			c2.311-2.426,5.472-3.64,9.485-3.64c4.061,0,7.245,1.214,9.555,3.64c2.311,2.427,3.466,5.88,3.466,10.36v10.64
			c0,4.48-1.155,7.934-3.466,10.36c-2.31,2.427-5.494,3.64-9.555,3.64C1613.804,166.52,1610.643,165.307,1608.332,162.88z
			 M1623.978,152.52v-10.64c0-4.946-2.054-7.42-6.16-7.42c-4.06,0-6.09,2.474-6.09,7.42v10.64c0,4.947,2.03,7.42,6.09,7.42
			C1621.924,159.939,1623.978,157.467,1623.978,152.52z"/>
		<path style="fill:#54FF82;" d="M1657.018,128.51v6.72c-1.307-0.56-2.824-0.84-4.55-0.84c-2.334,0-4.177,0.794-5.53,2.38
			c-1.354,1.587-2.03,3.85-2.03,6.79v22.12h-6.79v-36.89h4.83l0.771,4.48c2.053-3.546,5.203-5.32,9.45-5.32
			C1654.801,127.95,1656.084,128.137,1657.018,128.51z"/>
	</g>
</g>
<g>
</g>
<g>
</g>
<g>
</g>
<g>
</g>
<g>
</g>
<g>
</g>
<g>
</g>
<g>
</g>
<g>
</g>
<g>
</g>
<g>
</g>
<g>
</g>
<g>
</g>
<g>
</g>
<g>
</g>
</svg>
