<?xml version="1.0" encoding="iso-8859-1"?>
<!-- Generator: Adobe Illustrator 23.0.1, SVG Export Plug-In . SVG Version: 6.00 Build 0)  -->
<svg version="1.1" id="Layer_1" xmlns="http://www.w3.org/2000/svg" xmlns:xlink="http://www.w3.org/1999/xlink" x="0px" y="0px"
	 viewBox="0 0 1920 880" style="enable-background:new 0 0 1920 880;" xml:space="preserve">
<rect style="fill:#2A3892;" width="1920" height="880"/>
<g>
	<g>
		<rect x="1173" y="305.766" style="fill:none;" width="294.574" height="296.234"/>
		<path style="fill:#F63DF8;" d="M1193.41,314.646h24.79l-17.021,76.96h-15.54L1193.41,314.646z"/>
		<path style="fill:#F63DF8;" d="M1263.155,559.771c-11.719-12.21-17.575-29.537-17.575-51.985v-62.53
			c0-22.443,5.856-39.775,17.575-51.985c11.713-12.21,27.438-18.315,47.175-18.315c19.731,0,35.456,6.105,47.175,18.315
			c11.713,12.21,17.575,29.542,17.575,51.985v62.53c0,22.448-5.862,39.775-17.575,51.985c-11.719,12.21-27.443,18.315-47.175,18.315
			C1290.593,578.086,1274.868,571.98,1263.155,559.771z M1341.78,544.601c7.399-8.013,11.1-20.287,11.1-36.815v-62.53
			c0-16.522-3.7-28.796-11.1-36.815c-7.4-8.013-17.888-12.025-31.45-12.025c-13.568,0-24.05,4.012-31.45,12.025
			c-7.4,8.019-11.1,20.292-11.1,36.815v62.53c0,16.528,3.699,28.802,11.1,36.815c7.4,8.019,17.882,12.024,31.45,12.024
			C1323.893,556.625,1334.38,552.619,1341.78,544.601z"/>
		<path style="fill:#F63DF8;" d="M1420.218,306.136h21.83v267.51h-21.83V306.136z"/>
	</g>
	<g>
		<rect x="417.426" y="305.766" style="fill:none;" width="753.574" height="296.234"/>
		<path style="fill:#F63DF8;" d="M487.355,357.933v64.75h72.52v41.81h-72.52v109.52h-45.51v-259h125.06v42.92H487.355z"/>
		<path style="fill:#F63DF8;" d="M696.405,377.542v42.18c-7.648-3.203-15.667-4.81-24.05-4.81c-11.597,0-20.599,3.642-27.01,10.915
			c-6.417,7.279-9.62,17.945-9.62,32.005v116.18h-43.66v-195.73h29.6l4.07,23.31c10.603-18.5,27.131-27.75,49.58-27.75
			C684.195,373.843,691.226,375.08,696.405,377.542z"/>
		<path style="fill:#F63DF8;" d="M848.841,447.103v126.91h-35.15l-2.59-18.5c-8.88,15.788-23.31,23.681-43.29,23.681
			c-17.76,0-32.005-5.672-42.735-17.021c-10.73-11.343-16.095-26.021-16.095-44.03c0-19.731,6.533-34.78,19.61-45.14
			c13.071-10.36,30.832-15.54,53.28-15.54h22.94v-10.36c0-10.36-1.729-18.188-5.18-23.495c-3.458-5.302-9.129-7.955-17.02-7.955
			c-6.417,0-11.84,1.792-16.28,5.365c-4.44,3.579-7.157,8.944-8.14,16.095h-43.66c0.983-19.731,7.521-35.271,19.61-46.62
			c12.083-11.343,28.49-17.02,49.21-17.02C827.011,373.473,848.841,398.02,848.841,447.103z M804.811,492.983h-22.2
			c-9.377,0-16.592,2.162-21.645,6.475c-5.059,4.319-7.585,10.545-7.585,18.685c0,6.909,2.093,12.458,6.29,16.65
			c4.191,4.197,10.36,6.29,18.5,6.29c8.14,0,14.615-2.462,19.425-7.399c4.81-4.931,7.215-11.84,7.215-20.72V492.983z"/>
		<path style="fill:#F63DF8;" d="M902.118,559.213c-12.088-12.823-18.13-30.71-18.13-53.65v-59.57
			c0-22.691,6.042-40.451,18.13-53.28c12.083-12.823,28.733-19.24,49.95-19.24c22.2,0,39.278,6.354,51.245,19.055
			c11.961,12.707,18.315,30.525,19.055,53.465h-44.029c-0.74-20.471-9.25-30.71-25.53-30.71c-8.14,0-14.309,2.59-18.5,7.77
			c-4.197,5.18-6.29,12.829-6.29,22.94v59.57c0,10.36,2.093,18.13,6.29,23.31c4.191,5.18,10.36,7.77,18.5,7.77
			c16.28,0,24.911-10.36,25.899-31.08h44.031c-0.498,22.94-7.031,40.827-19.61,53.65c-12.58,12.828-29.601,19.24-51.06,19.24
			C930.851,578.453,914.201,572.041,902.118,559.213z"/>
		<path style="fill:#F63DF8;" d="M1141.503,535.533v41.07h-14.8c-20.229,0-36.202-6.104-47.915-18.315
			c-11.719-12.209-17.575-28.917-17.575-50.134v-90.28h-26.27v-39.59h26.27v-46.62h43.29v46.62h34.04v39.59h-34.04v90.65
			c0,9.377,2.035,16.223,6.105,20.535c4.069,4.319,10.296,6.475,18.685,6.475H1141.503z"/>
	</g>
</g>
<g>
	<g>
		<rect x="1194" y="285.766" style="fill:none;" width="294.574" height="296.234"/>
		<path style="fill:#C5FD09;" d="M1214.41,294.646h24.79l-17.021,76.96h-15.54L1214.41,294.646z"/>
		<path style="fill:#C5FD09;" d="M1284.155,539.771c-11.719-12.21-17.575-29.537-17.575-51.985v-62.53
			c0-22.443,5.856-39.775,17.575-51.985c11.713-12.21,27.438-18.315,47.175-18.315c19.731,0,35.456,6.105,47.175,18.315
			c11.713,12.21,17.575,29.542,17.575,51.985v62.53c0,22.448-5.862,39.775-17.575,51.985c-11.719,12.21-27.443,18.315-47.175,18.315
			C1311.593,558.086,1295.868,551.98,1284.155,539.771z M1362.78,524.601c7.399-8.013,11.1-20.287,11.1-36.815v-62.53
			c0-16.522-3.7-28.796-11.1-36.815c-7.4-8.013-17.888-12.025-31.45-12.025c-13.568,0-24.05,4.012-31.45,12.025
			c-7.4,8.019-11.1,20.292-11.1,36.815v62.53c0,16.528,3.699,28.802,11.1,36.815c7.4,8.019,17.882,12.025,31.45,12.025
			C1344.893,536.625,1355.38,532.619,1362.78,524.601z"/>
		<path style="fill:#C5FD09;" d="M1441.218,286.136h21.83v267.51h-21.83V286.136z"/>
	</g>
	<g>
		<rect x="438.426" y="285.766" style="fill:none;" width="753.574" height="296.234"/>
		<path style="fill:#C5FD09;" d="M508.355,337.933v64.75h72.52v41.81h-72.52v109.52h-45.51v-259h125.06v42.92H508.355z"/>
		<path style="fill:#C5FD09;" d="M717.405,357.542v42.18c-7.648-3.203-15.667-4.81-24.05-4.81c-11.597,0-20.599,3.642-27.01,10.915
			c-6.417,7.279-9.62,17.945-9.62,32.005v116.18h-43.66v-195.73h29.6l4.07,23.31c10.603-18.5,27.131-27.75,49.58-27.75
			C705.195,353.843,712.226,355.08,717.405,357.542z"/>
		<path style="fill:#C5FD09;" d="M869.841,427.103v126.91h-35.15l-2.59-18.5c-8.88,15.788-23.31,23.681-43.29,23.681
			c-17.76,0-32.005-5.672-42.735-17.021c-10.73-11.343-16.095-26.021-16.095-44.03c0-19.731,6.533-34.78,19.61-45.14
			c13.071-10.36,30.832-15.54,53.28-15.54h22.94v-10.36c0-10.36-1.729-18.188-5.18-23.495c-3.458-5.302-9.129-7.955-17.02-7.955
			c-6.417,0-11.84,1.792-16.28,5.365c-4.44,3.579-7.157,8.944-8.14,16.095h-43.66c0.983-19.731,7.521-35.271,19.61-46.62
			c12.083-11.343,28.49-17.02,49.21-17.02C848.011,353.473,869.841,378.02,869.841,427.103z M825.811,472.983h-22.2
			c-9.377,0-16.592,2.162-21.645,6.475c-5.059,4.319-7.585,10.545-7.585,18.685c0,6.909,2.093,12.458,6.29,16.65
			c4.191,4.197,10.36,6.29,18.5,6.29c8.14,0,14.615-2.462,19.425-7.4c4.81-4.931,7.215-11.84,7.215-20.72V472.983z"/>
		<path style="fill:#C5FD09;" d="M923.118,539.213c-12.088-12.823-18.13-30.71-18.13-53.65v-59.57
			c0-22.691,6.042-40.451,18.13-53.28c12.083-12.823,28.733-19.24,49.951-19.24c22.199,0,39.277,6.354,51.244,19.055
			c11.961,12.707,18.315,30.525,19.055,53.465h-44.029c-0.74-20.471-9.25-30.71-25.53-30.71c-8.14,0-14.309,2.59-18.5,7.77
			c-4.197,5.18-6.29,12.829-6.29,22.94v59.57c0,10.36,2.093,18.13,6.29,23.31c4.191,5.18,10.36,7.77,18.5,7.77
			c16.28,0,24.911-10.36,25.899-31.08h44.031c-0.498,22.94-7.031,40.827-19.61,53.65c-12.58,12.828-29.601,19.24-51.06,19.24
			C951.851,558.453,935.201,552.041,923.118,539.213z"/>
		<path style="fill:#C5FD09;" d="M1162.503,515.533v41.07h-14.8c-20.229,0-36.202-6.104-47.915-18.315
			c-11.719-12.21-17.575-28.917-17.575-50.135v-90.28h-26.27v-39.59h26.27v-46.62h43.29v46.62h34.04v39.59h-34.04v90.65
			c0,9.377,2.035,16.223,6.105,20.535c4.069,4.319,10.296,6.475,18.685,6.475H1162.503z"/>
	</g>
</g>
<g>
	<g>
		<rect x="1181" y="291.766" style="fill:none;" width="294.574" height="296.234"/>
		<path style="fill:#54FF82;" d="M1201.41,300.646h24.79l-17.021,76.96h-15.54L1201.41,300.646z"/>
		<path style="fill:#54FF82;" d="M1271.155,545.771c-11.719-12.21-17.575-29.537-17.575-51.985v-62.53
			c0-22.443,5.856-39.775,17.575-51.985c11.713-12.21,27.438-18.315,47.175-18.315c19.731,0,35.456,6.105,47.175,18.315
			c11.713,12.21,17.575,29.542,17.575,51.985v62.53c0,22.448-5.862,39.775-17.575,51.985c-11.719,12.21-27.443,18.315-47.175,18.315
			C1298.593,564.086,1282.868,557.98,1271.155,545.771z M1349.78,530.601c7.399-8.013,11.1-20.287,11.1-36.815v-62.53
			c0-16.522-3.7-28.796-11.1-36.815c-7.4-8.013-17.888-12.025-31.45-12.025c-13.568,0-24.05,4.012-31.45,12.025
			c-7.4,8.019-11.1,20.292-11.1,36.815v62.53c0,16.528,3.699,28.802,11.1,36.815c7.4,8.019,17.882,12.024,31.45,12.024
			C1331.893,542.625,1342.38,538.619,1349.78,530.601z"/>
		<path style="fill:#54FF82;" d="M1428.218,292.136h21.83v267.51h-21.83V292.136z"/>
	</g>
	<g>
		<rect x="425.426" y="291.766" style="fill:none;" width="753.574" height="296.234"/>
		<path style="fill:#54FF82;" d="M495.355,343.933v64.75h72.52v41.81h-72.52v109.52h-45.51v-259h125.06v42.92H495.355z"/>
		<path style="fill:#54FF82;" d="M704.405,363.542v42.18c-7.648-3.203-15.667-4.81-24.05-4.81c-11.597,0-20.599,3.642-27.01,10.915
			c-6.417,7.279-9.62,17.945-9.62,32.005v116.18h-43.66v-195.73h29.6l4.07,23.31c10.603-18.5,27.131-27.75,49.58-27.75
			C692.195,359.843,699.226,361.08,704.405,363.542z"/>
		<path style="fill:#54FF82;" d="M856.841,433.103v126.91h-35.15l-2.59-18.5c-8.88,15.788-23.31,23.681-43.29,23.681
			c-17.76,0-32.005-5.672-42.735-17.021c-10.73-11.343-16.095-26.021-16.095-44.03c0-19.731,6.533-34.78,19.61-45.14
			c13.071-10.36,30.832-15.54,53.28-15.54h22.94v-10.36c0-10.36-1.729-18.188-5.18-23.495c-3.458-5.302-9.129-7.955-17.02-7.955
			c-6.417,0-11.84,1.792-16.28,5.365c-4.44,3.579-7.157,8.944-8.14,16.095h-43.66c0.983-19.731,7.521-35.271,19.61-46.62
			c12.083-11.343,28.49-17.02,49.21-17.02C835.011,359.473,856.841,384.02,856.841,433.103z M812.811,478.983h-22.2
			c-9.377,0-16.592,2.162-21.645,6.475c-5.059,4.319-7.585,10.545-7.585,18.685c0,6.909,2.093,12.458,6.29,16.65
			c4.191,4.197,10.36,6.29,18.5,6.29c8.14,0,14.615-2.462,19.425-7.4c4.81-4.931,7.215-11.84,7.215-20.72V478.983z"/>
		<path style="fill:#54FF82;" d="M910.118,545.213c-12.088-12.823-18.13-30.71-18.13-53.65v-59.57
			c0-22.691,6.042-40.451,18.13-53.28c12.083-12.823,28.733-19.24,49.95-19.24c22.2,0,39.278,6.354,51.245,19.055
			c11.961,12.707,18.315,30.525,19.055,53.465h-44.029c-0.74-20.471-9.25-30.71-25.53-30.71c-8.14,0-14.309,2.59-18.5,7.77
			c-4.197,5.18-6.29,12.829-6.29,22.94v59.57c0,10.36,2.093,18.13,6.29,23.31c4.191,5.18,10.36,7.77,18.5,7.77
			c16.28,0,24.911-10.36,25.899-31.08h44.031c-0.498,22.94-7.031,40.827-19.61,53.65c-12.58,12.828-29.601,19.24-51.06,19.24
			C938.851,564.453,922.201,558.041,910.118,545.213z"/>
		<path style="fill:#54FF82;" d="M1149.503,521.533v41.07h-14.8c-20.229,0-36.202-6.104-47.915-18.315
			c-11.719-12.209-17.575-28.917-17.575-50.134v-90.28h-26.27v-39.59h26.27v-46.62h43.29v46.62h34.04v39.59h-34.04v90.65
			c0,9.377,2.035,16.223,6.105,20.535c4.069,4.319,10.296,6.475,18.685,6.475H1149.503z"/>
	</g>
</g>
<g>
</g>
<g>
</g>
<g>
</g>
<g>
</g>
<g>
</g>
<g>
</g>
<g>
</g>
<g>
</g>
<g>
</g>
<g>
</g>
<g>
</g>
<g>
</g>
<g>
</g>
<g>
</g>
<g>
</g>
</svg>
